<?xml version="1.0" standalone="no"?>
<!DOCTYPE svg PUBLIC "-//W3C//DTD SVG 20010904//EN"
 "http://www.w3.org/TR/2001/REC-SVG-20010904/DTD/svg10.dtd">
<svg version="1.0" xmlns="http://www.w3.org/2000/svg"
 width="712.000000pt" height="712.000000pt" viewBox="0 0 712.000000 712.000000"
 preserveAspectRatio="xMidYMid meet">
<metadata>
Created by potrace 1.11, written by Peter Selinger 2001-2013
</metadata>
<g transform="translate(0.000000,712.000000) scale(0.100000,-0.100000)"
fill="#000000" stroke="none">
<path d="M3529 7115 c-5 -4 -277 -102 -309 -110 -24 -6 -84 -30 -95 -36 -5 -4
-26 -10 -45 -14 -19 -4 -41 -11 -50 -16 -13 -8 -175 -65 -205 -73 -5 -2 -23
-9 -40 -15 -16 -7 -34 -14 -40 -15 -5 -2 -17 -6 -25 -9 -8 -3 -51 -18 -95 -32
-72 -25 -106 -37 -170 -61 -11 -4 -24 -8 -30 -10 -5 -1 -44 -14 -85 -29 -102
-36 -105 -37 -106 -33 0 2 -8 -3 -17 -11 -10 -7 -17 -11 -17 -7 0 4 -13 0 -30
-9 -16 -8 -31 -15 -32 -15 -4 1 -36 -9 -63 -20 -11 -4 -56 -20 -100 -35 -44
-14 -87 -29 -95 -32 -8 -3 -19 -7 -25 -9 -5 -1 -23 -8 -40 -15 -16 -6 -34 -13
-40 -15 -18 -5 -350 -121 -377 -133 -16 -6 -28 -8 -28 -5 0 4 -6 2 -12 -3 -7
-6 -62 -27 -123 -47 -60 -21 -123 -44 -140 -51 -16 -7 -43 -17 -60 -21 -16 -4
-36 -12 -44 -18 -8 -6 -17 -10 -20 -10 -3 1 -10 0 -16 -1 -28 -9 -147 -50
-290 -100 -88 -32 -169 -60 -180 -63 -11 -2 -24 -8 -30 -12 -5 -4 -23 -11 -40
-15 -43 -11 -42 -11 -130 -43 -89 -32 -87 -29 -73 -132 4 -30 10 -80 13 -110
4 -30 8 -66 10 -80 3 -22 7 -53 20 -170 2 -19 7 -53 9 -75 3 -22 8 -59 11 -82
3 -24 8 -62 11 -85 12 -98 28 -240 28 -270 1 -16 3 -28 6 -28 3 0 5 -12 6 -27
1 -31 12 -131 20 -178 3 -16 7 -52 9 -80 2 -27 6 -59 8 -70 3 -11 8 -51 12
-89 4 -38 9 -79 11 -90 1 -12 6 -48 9 -81 4 -33 8 -73 11 -90 2 -16 5 -48 8
-70 6 -52 16 -131 22 -175 3 -19 7 -53 9 -75 9 -86 18 -161 21 -180 2 -11 6
-42 9 -70 3 -27 7 -68 10 -90 3 -22 8 -62 10 -89 3 -28 7 -57 10 -65 2 -9 7
-45 10 -81 3 -36 7 -76 9 -90 3 -14 7 -50 11 -80 3 -30 7 -71 10 -90 2 -19 7
-57 10 -85 4 -27 8 -61 10 -75 2 -14 6 -50 10 -80 3 -30 7 -71 10 -90 2 -19 7
-57 10 -85 3 -27 8 -61 10 -75 2 -14 6 -50 10 -80 3 -30 8 -71 10 -90 3 -19 7
-55 9 -80 3 -25 7 -61 10 -80 3 -19 8 -62 11 -95 3 -33 8 -69 10 -80 3 -11 7
-45 10 -75 3 -30 7 -72 10 -93 3 -20 7 -54 10 -75 3 -20 7 -62 10 -92 3 -30 8
-71 11 -90 3 -19 7 -50 9 -69 5 -41 5 -40 75 -77 30 -16 57 -31 60 -34 3 -3
21 -13 40 -22 19 -10 64 -34 100 -54 36 -20 88 -48 115 -63 28 -14 52 -28 55
-31 3 -3 19 -12 35 -21 17 -8 62 -33 100 -54 39 -21 88 -48 110 -60 22 -11
104 -57 183 -101 79 -43 169 -93 200 -110 31 -16 84 -45 117 -64 108 -60 139
-77 205 -112 36 -19 85 -46 110 -60 25 -14 72 -40 105 -58 33 -18 74 -40 90
-50 33 -19 94 -53 193 -106 164 -89 195 -106 225 -123 18 -10 59 -33 92 -51
33 -18 74 -40 90 -50 43 -25 136 -76 235 -128 47 -25 87 -49 88 -54 2 -4 8 -8
13 -8 6 0 51 -23 102 -50 50 -28 96 -48 101 -45 6 3 25 14 42 24 17 10 60 35
95 54 67 36 113 61 239 132 41 23 104 58 140 77 137 75 306 169 320 178 8 6
26 16 40 22 14 7 50 27 80 44 30 17 80 45 110 61 30 17 71 39 90 50 19 11 62
35 95 53 33 18 76 42 95 53 19 11 60 33 90 50 60 32 144 79 200 110 19 11 64
35 100 55 36 19 71 39 77 44 7 6 39 23 70 39 32 17 76 40 98 53 126 71 208
116 216 116 5 0 9 5 9 10 0 6 9 10 20 10 11 0 20 4 20 9 0 5 15 14 33 22 17 7
34 15 37 19 3 3 28 17 55 31 28 14 122 66 210 115 88 49 171 95 185 102 62 32
61 31 75 157 3 28 8 66 11 86 2 20 7 55 9 79 2 24 7 59 10 79 2 20 7 56 10 81
3 25 7 61 10 80 4 36 15 126 20 170 2 14 6 50 10 80 3 30 8 71 10 90 1 19 6
53 9 75 8 56 16 122 21 175 3 25 7 59 10 75 2 17 7 55 10 85 3 30 7 71 10 90
5 33 10 81 20 160 2 19 4 35 5 35 1 0 3 20 5 45 2 25 6 61 9 80 5 40 14 109
22 178 3 26 7 61 10 77 2 17 6 50 8 75 3 25 5 45 6 45 1 0 3 20 5 45 2 25 7
63 10 85 9 64 18 148 19 173 0 12 2 22 6 22 3 0 5 15 6 33 0 17 3 57 7 87 6
51 10 81 22 185 13 115 24 202 30 245 3 19 7 56 10 82 3 26 7 62 10 80 5 33
13 100 19 168 5 41 16 134 21 170 2 14 6 50 10 80 9 79 15 130 20 170 12 89
18 141 29 245 4 33 9 75 12 93 10 76 13 100 19 157 4 33 8 71 10 85 16 97 14
120 -8 132 -12 6 -23 11 -24 10 -2 -1 -8 0 -15 3 -40 12 -145 47 -158 52 -8 3
-19 7 -25 9 -5 1 -50 17 -100 34 -49 18 -94 33 -100 34 -5 2 -23 8 -38 14 -16
7 -34 12 -41 12 -7 0 -16 3 -20 8 -4 4 -11 7 -14 8 -4 0 -14 3 -22 7 -8 3 -33
11 -55 17 -22 6 -49 15 -60 20 -28 12 -58 23 -70 25 -19 5 -260 87 -280 96
-11 4 -114 40 -230 80 -294 99 -496 168 -525 179 -14 5 -92 32 -175 60 -82 28
-157 54 -165 57 -8 3 -19 7 -25 9 -10 3 -547 187 -740 254 -60 21 -123 43
-140 50 -16 6 -32 12 -35 12 -3 0 -16 4 -29 9 -13 5 -31 11 -40 13 -9 2 -29 8
-44 14 -16 7 -34 12 -41 12 -7 0 -16 3 -20 7 -6 6 -113 43 -127 43 -3 0 -8 -2
-10 -5z"/>
</g>
</svg>
