<?xml version="1.0" standalone="no"?>
<!DOCTYPE svg PUBLIC "-//W3C//DTD SVG 20010904//EN"
 "http://www.w3.org/TR/2001/REC-SVG-20010904/DTD/svg10.dtd">
<svg version="1.0" xmlns="http://www.w3.org/2000/svg"
 width="700.000000pt" height="700.000000pt" viewBox="0 0 700.000000 700.000000"
 preserveAspectRatio="xMidYMid meet">
<metadata>
Created by potrace 1.11, written by Peter Selinger 2001-2013
</metadata>
<g transform="translate(0.000000,700.000000) scale(0.100000,-0.100000)"
fill="#000000" stroke="none">
<path d="M2125 6090 c-132 -49 -530 -194 -885 -323 -640 -233 -645 -235 -648
-263 -2 -29 312 -2402 319 -2408 13 -11 1470 -816 1477 -816 10 0 1460 804
1473 817 11 11 334 2422 326 2430 -11 11 -1787 653 -1805 652 -9 0 -125 -41
-257 -89z m992 -501 c395 -143 722 -264 726 -269 8 -7 -245 -1962 -261 -2008
-5 -17 -149 -101 -601 -352 l-593 -329 -597 331 -597 332 -135 1013 -135 1013
42 16 c205 78 1403 512 1416 513 10 1 341 -116 735 -260z"/>
<path d="M1925 4474 c-253 -591 -461 -1079 -463 -1084 -2 -6 53 -10 150 -10
l154 0 101 233 100 232 420 3 421 2 99 -232 100 -233 156 -3 156 -3 -33 78
c-18 43 -226 528 -461 1078 -235 550 -431 1003 -434 1007 -3 3 -213 -477 -466
-1068z m495 291 c13 -33 74 -181 137 -328 62 -147 113 -270 113 -272 0 -3
-128 -5 -284 -5 l-284 0 97 228 c54 125 118 277 142 339 24 62 47 109 50 105
3 -4 16 -34 29 -67z"/>
<path d="M4107 3233 c-4 -3 -7 -323 -7 -710 l0 -703 175 0 175 0 0 710 0 710
-168 0 c-93 0 -172 -3 -175 -7z"/>
<path d="M4627 3233 c-4 -3 -7 -323 -7 -710 l0 -703 175 0 175 0 0 710 0 710
-168 0 c-93 0 -172 -3 -175 -7z"/>
<path d="M5087 3233 c-4 -3 -7 -163 -7 -355 l0 -348 175 0 175 0 0 355 0 355
-168 0 c-93 0 -172 -3 -175 -7z"/>
<path d="M950 2603 c-137 -15 -336 -92 -455 -178 -88 -63 -187 -166 -251 -261
-62 -94 -95 -163 -131 -283 -24 -79 -27 -100 -27 -261 0 -149 3 -187 22 -253
113 -406 455 -697 867 -736 558 -54 1051 370 1082 930 34 614 -492 1109 -1107
1042z m211 -710 c75 -24 159 -107 184 -182 46 -138 -19 -293 -150 -357 -139
-67 -315 -8 -388 131 -28 55 -35 176 -13 230 26 62 64 111 109 141 82 54 166
66 258 37z"/>
<path d="M5870 2440 c-399 -68 -698 -365 -761 -754 -16 -105 -7 -290 21 -385
105 -368 438 -636 816 -658 631 -37 1107 569 918 1169 -95 301 -334 529 -639
608 -92 24 -272 34 -355 20z m244 -534 c267 -81 354 -429 156 -627 -215 -215
-569 -109 -640 190 -41 174 73 372 251 435 56 19 172 20 233 2z"/>
</g>
</svg>
