<?xml version="1.0"?>
<svg width="170" height="140" xmlns="http://www.w3.org/2000/svg">
 <!-- Created with Method Draw - http://github.com/duopixel/Method-Draw/ -->

 <g>
  <title>background</title>
  <rect fill="none" id="canvas_background" height="142" width="172" y="-1" x="-1"/>
  <g display="none" overflow="visible" y="0" x="0" height="100%" width="100%" id="canvasGrid">
   <rect fill="url(#gridpattern)" stroke-width="0" y="0" x="0" height="100%" width="100%"/>
  </g>
 </g>
 <g>
  <title>Layer 1</title>
  <path stroke="null" id="svg_4" d="m58.002007,2.49516l-43.827835,15.938048l7.862381,59.015697l35.965454,19.976044l35.96553,-19.983368l7.862396,-59.008373l-43.827927,-15.938048zm0,8.016814l35.560959,12.929901l-6.567863,49.255779l-28.993095,16.107361l-28.993011,-16.107361l-6.567932,-49.255779l35.560944,-12.929901zm0,7.288696l-22.594238,52.719921l7.531418,0l4.854233,-11.297131l20.417236,0l4.854233,11.297131l7.531479,0l-22.59436,-52.719921zm0,17.136871l0.073547,0.220673l2.640442,6.590027l4.251129,9.943787l-13.930176,0l4.251129,-9.943787l2.640457,-6.590027l0.073471,-0.220673z"/>
  <path id="svg_17" d="m25.954689,89.311394c-13.287521,0 -24.095153,10.811951 -24.095153,24.099457c0,13.283257 10.81195,24.090858 24.095153,24.090858s24.095169,-10.811905 24.095169,-24.090858c0,-13.287506 -10.81189,-24.099457 -24.095169,-24.099457zm0,31.200165c-3.917145,0 -7.105011,-3.187805 -7.105011,-7.100708c0,-3.921448 3.187866,-7.10498 7.105011,-7.10498s7.100693,3.183533 7.100693,7.10498c0,3.912903 -3.183533,7.100708 -7.100693,7.100708z" fill="#000000"/>
  <path id="svg_18" d="m145.751434,93.203819c-12.116272,0 -21.971397,9.859467 -21.971397,21.971405s9.855125,21.971382 21.971397,21.971382c12.111908,0 21.971405,-9.859451 21.971405,-21.971382s-9.859497,-21.971405 -21.971405,-21.971405zm0,31.200165c-5.092834,0 -9.22876,-4.140259 -9.22876,-9.22876s4.140259,-9.22876 9.22876,-9.22876c5.08847,0 9.224426,4.140289 9.224426,9.22876s-4.140259,9.22876 -9.224426,9.22876z" fill="#000000"/>
  <rect transform="matrix(4.29045 0 0 4.29045 -383.2 -171.538)" id="svg_20" height="8.025" width="1.979" fill="#000000" y="57.244671" x="112.542954"/>
  <rect transform="matrix(4.29045 0 0 4.29045 -383.2 -171.538)" id="svg_21" height="8.025" width="1.98" fill="#000000" y="57.244671" x="115.480954"/>
  <rect transform="matrix(4.29045 0 0 4.29045 -383.2 -171.538)" id="svg_23" height="4.012" width="1.979" fill="#000000" y="57.244671" x="118.095923"/>
  <rect stroke="null" transform="rotate(-0.0285556 115.362 91.2573) matrix(-3.86138 0 0 -4.02194 929.427 303.011)" id="svg_28" height="8.025" width="1.979" fill="#000000" y="48.637002" x="209.832609"/>
  <rect stroke="null" transform="rotate(-0.0285556 104.015 91.263) matrix(-3.86138 0 0 -4.02194 929.427 303.011)" id="svg_29" height="8.025" width="1.98" fill="#000000" y="48.635596" x="212.770609"/>
  <rect stroke="null" transform="rotate(-0.0285556 92.6578 100.678) matrix(-3.86138 0 0 -4.02194 929.427 303.011)" id="svg_31" height="4.012" width="1.979" fill="#000000" y="48.301276" x="215.712601"/>
 </g>
</svg>